<?xml version="1.0" encoding="utf-8"?>
<!-- Generator: Adobe Illustrator 18.1.1, SVG Export Plug-In . SVG Version: 6.00 Build 0)  -->
<svg version="1.1" id="Layer_1" xmlns="http://www.w3.org/2000/svg" xmlns:xlink="http://www.w3.org/1999/xlink" x="0px" y="0px"
	 viewBox="0 0 200 200" enable-background="new 0 0 200 200" xml:space="preserve">
<g>
	<path fill="#0083C2" d="M128.1,53.6V30.5l0,0l0,0l0,0c-0.2-2.9-2.6-5.2-5.5-5.2c0,0,0,0-0.1,0l0,0l0,0l0,0H122h-1.2h-6.1h-5.8h-6.1
		H97h-6.1H85h-6.1h-1.5c-2.9,0-5.3,2.3-5.5,5.2l0,0l0,0l0,0v23.1v5.9h56.2V53.6z M85,52.2h-6.1V32.9H85V52.2z M97,52.2h-6.1V32.9H97
		V52.2z M108.9,52.2h-6.1V32.9h6.1V52.2z M120.8,52.2h-6.1V32.9h6.1V52.2z"/>
	<path fill="#0083C2" d="M136.6,69.3c-0.2-2.7-2.4-4.9-5.2-4.9h-0.1H118H82H68.7l0,0c0,0,0,0-0.1,0c-2.8,0-5.1,2.2-5.2,4.9l0,0v4.8
		v18.6v13.4l0,0l0,0c0.2,2.7,2.4,4.9,5.2,4.9h0.1l2.6,14.9H74l1.9,10l0,0c0.2,2.7,2.5,4.8,5.2,4.8h0.1h3.4v29.8l0,0
		c0,1.8,1.4,3.2,3.2,3.2H112c1.8,0,3.2-1.4,3.2-3.2l0,0v-29.8h3.5h0.1l0,0c2.8,0,5.1-2.2,5.2-4.9l0,0l0,0l0,0v-0.1l1.8-9.9h2.7
		l2.6-14.9h0.1l0,0c0,0,0,0,0.1,0c2.8,0,5-2.2,5.2-4.9l0,0V92.7V74.2L136.6,69.3L136.6,69.3L136.6,69.3z"/>
</g>
</svg>
