<?xml version="1.0" encoding="utf-8"?>
<!-- Generator: Adobe Illustrator 15.0.2, SVG Export Plug-In . SVG Version: 6.00 Build 0)  -->
<!DOCTYPE svg PUBLIC "-//W3C//DTD SVG 1.1//EN" "http://www.w3.org/Graphics/SVG/1.1/DTD/svg11.dtd">
<svg version="1.1" id="Layer_1" xmlns="http://www.w3.org/2000/svg" xmlns:xlink="http://www.w3.org/1999/xlink" x="0px" y="0px"
	 width="670.334px" height="313px" viewBox="0 0 670.334 313" enable-background="new 0 0 670.334 313" xml:space="preserve">
<g id="Layer_1_2_">
	<path fill="#0083C2" d="M534.975,213.743c-27.476,0-49.736,22.277-49.736,49.742c0,27.453,22.261,49.73,49.736,49.73
		c27.459,0,49.736-22.277,49.736-49.73C584.711,236.021,562.434,213.743,534.975,213.743z"/>
	<path fill="#0083C2" d="M143.008,213.743c-27.459,0-49.736,22.277-49.736,49.742c0,27.453,22.277,49.73,49.736,49.73
		c27.465,0,49.736-22.277,49.736-49.73C192.744,236.021,170.473,213.743,143.008,213.743z"/>
	<g>
		<path fill="#0083C2" d="M668.592,210.022L668.592,210.022c-3.71-30.43-17.819-56.404-71.26-85.357
			C532.742,89.028,495.627,1.427,414.712,1.427H31.658c-8.907,0-17.07,6.686-17.813,15.592C9.38,44.493,1.962,102.388,1.962,140.991
			V232.3c0,13.371,10.395,23.766,23.76,24.5l53.44,2.232c2.232-33.406,30.436-60.137,64.59-60.137
			c34.894,0,63.841,25.986,64.585,63.102h262.786c0.744-37.115,29.691-63.102,64.596-63.102c34.877,0,63.835,25.986,64.573,63.102
			h54.195c5.931,0,15.582-6.676,15.582-33.406C669.336,221.161,669.336,217.452,668.592,210.022z M423.619,112.038
			c-8.907,0-16.337-7.418-17.07-16.326l-5.208-65.334c97.996,0,109.868,51.965,126.204,85.381L423.619,112.038z"/>
		<path fill="#0083C2" d="M668.592,209.29L668.592,209.29L668.592,209.29z"/>
	</g>
</g>
</svg>
